# xmcd
#
# Track frame offsets: 
#        150
#        18523
#        40822
#        58691
#        78044
#        95849
#        113408
#        133430
#        148694
#        168584
#        187140
#        204262
#        222886
#
# Disc length: 3252 seconds
#
# Revision: 0
# Processed by: cddbd v1.5.2PL0 Copyright (c) Steve Scherf et al.
# Submitted via: ExactAudioCopy v1.0b3
#
DISCID=bb0cb20d
DTITLE=Taylor Swift - Fearless
DYEAR=1900
DGENRE=Country
TTITLE0=Fearless
TTITLE1=Fifyeen
TTITLE2=Love story
TTITLE3=Hey Stephen
TTITLE4=White horse
TTITLE5=You belong with me
TTITLE6=Brethe
TTITLE7=Tellme why
TTITLE8=You're not sorry
TTITLE9=The way I loved you
TTITLE10=Forever and always
TTITLE11=The best day
TTITLE12=Change
EXTD=
EXTT0=
EXTT1=
EXTT2=
EXTT3=
EXTT4=
EXTT5=
EXTT6=
EXTT7=
EXTT8=
EXTT9=
EXTT10=
EXTT11=
EXTT12=
PLAYORDER=
